<?xml version="1.0" encoding="UTF-8" standalone="no"?>
<svg
   id="Layer_1"
   data-name="Layer 1"
   viewBox="0 0 16 16"
   version="1.1"
   sodipodi:docname="indicatorSP5DocRelease16.svg"
   inkscape:version="1.1.1 (3bf5ae0d25, 2021-09-20)"
   xmlns:inkscape="http://www.inkscape.org/namespaces/inkscape"
   xmlns:sodipodi="http://sodipodi.sourceforge.net/DTD/sodipodi-0.dtd"
   xmlns="http://www.w3.org/2000/svg"
   xmlns:svg="http://www.w3.org/2000/svg">
  <defs
     id="defs11" />
  <sodipodi:namedview
     id="namedview9"
     pagecolor="#ffffff"
     bordercolor="#666666"
     borderopacity="1.0"
     inkscape:pageshadow="2"
     inkscape:pageopacity="0.0"
     inkscape:pagecheckerboard="0"
     showgrid="false"
     inkscape:zoom="54.5625"
     inkscape:cx="8"
     inkscape:cy="8"
     inkscape:window-width="2560"
     inkscape:window-height="1377"
     inkscape:window-x="-8"
     inkscape:window-y="-8"
     inkscape:window-maximized="1"
     inkscape:current-layer="Layer_1" />
  <path
     d="M15.726.772C13.271-.47,10.837.109,8.354.87l-.5.153C5.48,1.758,3.23,2.434,1,1.446V0H0V16H1V13.54a6.827,6.827,0,0,0,2.38.414,16.44,16.44,0,0,0,4.77-.975l.5-.153c2.368-.724,4.5-1.237,6.628-.161a.5.5,0,0,0,.488-.02A.5.5,0,0,0,16,12.219v-11A.5.5,0,0,0,15.726.772Z"
     class="aw-theme-iconOutline"
     fill="#464646"
     id="path2" />
  <path
     d="M1,12.465c2.23.987,4.48.293,6.855-.442l.5-.153c2.239-.685,4.436-1.224,6.646-.413V1.535c-2.036-.9-4.087-.4-6.354.291h0l-.5.153C5.828,2.7,3.434,3.438,1,2.543Z"
     fill="#3caf82"
     id="path4" />
  <rect
     x="4.4570446"
     y="3.4387171"
     width="5.8762889"
     height="7.0515466"
     fill="#e6e6e6"
     id="rect14"
     style="fill:#3c91af;fill-opacity:1;stroke-width:0.587629" />
  <rect
     x="5.1363115"
     y="8.8739977"
     width="4.7010307"
     height="0.58762884"
     fill="#c2c2b1"
     id="rect16"
     style="stroke-width:0.587629" />
  <rect
     x="5.1363115"
     y="7.6987395"
     width="4.7010307"
     height="0.58762884"
     fill="#c2c2b1"
     id="rect18"
     style="stroke-width:0.587629" />
  <rect
     x="5.1363115"
     y="6.5234828"
     width="4.7010307"
     height="0.58762884"
     fill="#c2c2b1"
     id="rect20"
     style="stroke-width:0.587629" />
  <rect
     x="5.1363115"
     y="5.3482251"
     width="4.7010307"
     height="0.58762884"
     fill="#c2c2b1"
     id="rect22"
     style="stroke-width:0.587629" />
  <path
     d="m 6.8449795,11.82182 a 0.5,0.5 0 0 1 -0.354,-0.146 L 3.49098,8.6758199 a 0.5006316,0.5006316 0 0 1 0.7079998,-0.708 L 6.7989795,10.56782 11.59898,4.5678201 a 0.500537,0.500537 0 0 1 0.782,0.625 L 7.2359795,11.63382 a 0.5,0.5 0 0 1 -0.363,0.188 z"
     fill="#ffffff"
     id="path6" />
</svg>
