<?xml version="1.0" encoding="UTF-8" standalone="no"?>
<svg
   id="Layer_1"
   data-name="Layer 1"
   viewBox="0 0 16 16"
   version="1.1"
   sodipodi:docname="indicatorReleasedTCMReleased16.svg"
   inkscape:version="1.1.1 (3bf5ae0d25, 2021-09-20)"
   xmlns:inkscape="http://www.inkscape.org/namespaces/inkscape"
   xmlns:sodipodi="http://sodipodi.sourceforge.net/DTD/sodipodi-0.dtd"
   xmlns="http://www.w3.org/2000/svg"
   xmlns:svg="http://www.w3.org/2000/svg">
  <defs
     id="defs15" />
  <sodipodi:namedview
     id="namedview13"
     pagecolor="#ffffff"
     bordercolor="#666666"
     borderopacity="1.0"
     inkscape:pageshadow="2"
     inkscape:pageopacity="0.0"
     inkscape:pagecheckerboard="0"
     showgrid="false"
     inkscape:zoom="54.5625"
     inkscape:cx="8"
     inkscape:cy="8"
     inkscape:window-width="2560"
     inkscape:window-height="1377"
     inkscape:window-x="-8"
     inkscape:window-y="-8"
     inkscape:window-maximized="1"
     inkscape:current-layer="Layer_1" />
  <path
     d="M15.7261.7725C13.272-.4688,10.8384.1094,8.3535.8691l0,0-.4937.1521C5.4826,1.757,3.2318,2.4355,1,1.4469V0H0V16H1V13.54a6.8262,6.8262,0,0,0,2.38.4141,16.4338,16.4338,0,0,0,4.7749-.9766l.4908-.1512h.0009c2.37-.7246,4.5039-1.2383,6.6274-.1612a.4941.4941,0,0,0,.4878-.02A.4994.4994,0,0,0,16,12.2188v-11A.5.5,0,0,0,15.7261.7725Z"
     class="aw-theme-iconOutline"
     fill="#464646"
     id="path2" />
  <path
     d="M9,7.2188v4.458a9.4056,9.4056,0,0,1,6-.2207V7.0352C13.0728,6.18,11.1284,6.584,9,7.2188Z"
     id="path4"
     style="fill:#3caf82;fill-opacity:1" />
  <path
     d="M1,6.9648c2.2329.9893,4.4824.293,6.8594-.4433L8,6.4785V2.0254c-2.2769.7021-4.62,1.3916-7,.5185Z"
     id="path6"
     style="fill:#3caf82;fill-opacity:1" />
  <path
     d="M9,1.7188v4.458a9.4117,9.4117,0,0,1,6-.2207V1.5352C13.0728.6787,11.1284,1.085,9,1.7188Z"
     fill="#e6e6e6"
     id="path8" />
  <path
     d="M1,12.4648c2.2329.9883,4.4824.292,6.8594-.4433L8,11.9785V7.5254c-2.2769.7021-4.62,1.3926-7,.5185Z"
     fill="#e6e6e6"
     id="path10" />
</svg>
