<?xml version="1.0" encoding="UTF-8" standalone="no"?>
<svg
   xmlns:dc="http://purl.org/dc/elements/1.1/"
   xmlns:cc="http://creativecommons.org/ns#"
   xmlns:rdf="http://www.w3.org/1999/02/22-rdf-syntax-ns#"
   xmlns:svg="http://www.w3.org/2000/svg"
   xmlns="http://www.w3.org/2000/svg"
   xmlns:xlink="http://www.w3.org/1999/xlink"
   xmlns:sodipodi="http://sodipodi.sourceforge.net/DTD/sodipodi-0.dtd"
   xmlns:inkscape="http://www.inkscape.org/namespaces/inkscape"
   id="Layer_1"
   data-name="Layer 1"
   viewBox="0 0 48 48"
   version="1.1"
   sodipodi:docname="typePLM4PrDesSWRevision48.svg"
   inkscape:version="1.0.1 (3bc2e813f5, 2020-09-07)">
  <metadata
     id="metadata105">
    <rdf:RDF>
      <cc:Work
         rdf:about="">
        <dc:format>image/svg+xml</dc:format>
        <dc:type
           rdf:resource="http://purl.org/dc/dcmitype/StillImage" />
      </cc:Work>
    </rdf:RDF>
  </metadata>
  <defs
     id="defs103" />
  <sodipodi:namedview
     pagecolor="#ffffff"
     bordercolor="#666666"
     borderopacity="1"
     objecttolerance="10"
     gridtolerance="10"
     guidetolerance="10"
     inkscape:pageopacity="0"
     inkscape:pageshadow="2"
     inkscape:window-width="2560"
     inkscape:window-height="1377"
     id="namedview101"
     showgrid="false"
     inkscape:zoom="21"
     inkscape:cx="24"
     inkscape:cy="24"
     inkscape:window-x="-8"
     inkscape:window-y="-8"
     inkscape:window-maximized="1"
     inkscape:current-layer="Layer_1"
     inkscape:document-rotation="0" />
  <linearGradient
     id="New_Gradient_Swatch_1"
     data-name="New Gradient Swatch 1"
     x1="17"
     y1="23.3"
     x2="28"
     y2="34.3"
     gradientUnits="userSpaceOnUse">
    <stop
       offset="0"
       stop-color="#cde6eb"
       id="stop2" />
    <stop
       offset="0.221"
       stop-color="#c6e2e8"
       id="stop4" />
    <stop
       offset="0.542"
       stop-color="#b3d8e1"
       id="stop6" />
    <stop
       offset="0.921"
       stop-color="#93c7d5"
       id="stop8" />
    <stop
       offset="1"
       stop-color="#8cc3d2"
       id="stop10" />
  </linearGradient>
  <linearGradient
     id="linear-gradient"
     x1="-4.45"
     y1="15.05"
     x2="25.25"
     y2="44.75"
     gradientUnits="userSpaceOnUse">
    <stop
       offset="0"
       stop-color="#afd7e1"
       id="stop13" />
    <stop
       offset="0.159"
       stop-color="#a4d0dc"
       id="stop15" />
    <stop
       offset="0.706"
       stop-color="#80bcce"
       id="stop17" />
    <stop
       offset="1"
       stop-color="#73b4c8"
       id="stop19" />
  </linearGradient>
  <linearGradient
     id="New_Gradient_Swatch_1-2"
     x1="6"
     y1="4.6"
     x2="17"
     y2="15.6"
     xlink:href="#New_Gradient_Swatch_1" />
  <linearGradient
     id="linear-gradient-2"
     x1="35.604"
     y1="10.725"
     x2="38.604"
     y2="13.725"
     gradientTransform="translate(17.658 -23.13) rotate(45)"
     gradientUnits="userSpaceOnUse">
    <stop
       offset="0"
       stop-color="#b1b1b1"
       id="stop23" />
    <stop
       offset="1"
       stop-color="#7d7d7d"
       id="stop25" />
  </linearGradient>
  <linearGradient
     id="paper_gradient"
     data-name="paper gradient"
     x1="43.104"
     y1="3.225"
     x2="46.104"
     y2="6.225"
     gradientTransform="translate(-1.854 -0.475)"
     gradientUnits="userSpaceOnUse">
    <stop
       offset="0"
       stop-color="#fff"
       id="stop28" />
    <stop
       offset="0.221"
       stop-color="#f8f8f8"
       id="stop30" />
    <stop
       offset="0.541"
       stop-color="#e5e5e5"
       id="stop32" />
    <stop
       offset="0.92"
       stop-color="#c6c6c6"
       id="stop34" />
    <stop
       offset="1"
       stop-color="#bebebe"
       id="stop36" />
  </linearGradient>
  <linearGradient
     id="Light_Blue_Grad"
     data-name="Light Blue Grad"
     x1="41.854"
     y1="4.475"
     x2="44.854"
     y2="7.475"
     gradientTransform="translate(-1.854 -0.475)"
     gradientUnits="userSpaceOnUse">
    <stop
       offset="0"
       stop-color="#afd7e1"
       id="stop39" />
    <stop
       offset="1"
       stop-color="#73b4c8"
       id="stop41" />
  </linearGradient>
  <linearGradient
     id="paper_gradient-2"
     x1="27.354"
     y1="19.475"
     x2="32.354"
     y2="19.475"
     xlink:href="#paper_gradient" />
  <linearGradient
     id="paper_gradient-3"
     x1="36.5"
     y1="19.5"
     x2="47.5"
     y2="30.5"
     gradientTransform="matrix(1, 0, 0, 1, 0, 0)"
     xlink:href="#paper_gradient" />
  <polygon
     points="22.5 35.4 22.5 47.5 33.5 40.9 33.5 28.8 22.5 35.4"
     fill="#3c91af"
     id="polygon46" />
  <polygon
     points="11.5 16.7 11.5 28.8 22.5 22.2 22.5 10.1 11.5 16.7"
     fill="#3c91af"
     id="polygon48" />
  <polygon
     points="33.5 28.8 22.5 35.4 11.5 28.8 22.5 22.2 33.5 28.8"
     fill="url(#New_Gradient_Swatch_1)"
     id="polygon50" />
  <polygon
     points="11.5 28.8 11.5 16.7 0.5 10.1 0.5 34.3 22.5 47.5 22.5 35.4 11.5 28.8"
     fill="url(#linear-gradient)"
     id="polygon52" />
  <line
     x1="11.5"
     y1="28.8"
     x2="0.5"
     y2="22.2"
     fill="none"
     stroke="#147391"
     stroke-linejoin="round"
     id="line54" />
  <line
     x1="22.5"
     y1="35.4"
     x2="22.5"
     y2="47.5"
     fill="none"
     stroke="#147391"
     stroke-linejoin="round"
     id="line56" />
  <line
     x1="11.5"
     y1="40.9"
     x2="11.5"
     y2="16.7"
     fill="none"
     stroke="#147391"
     stroke-linejoin="round"
     id="line58" />
  <polygon
     points="0.5 10.1 11.5 3.5 22.5 10.1 11.5 16.7 0.5 10.1"
     fill="url(#New_Gradient_Swatch_1-2)"
     id="polygon60" />
  <polyline
     points="22.5 10.1 11.5 16.7 0.5 10.1"
     fill="none"
     stroke="#147391"
     stroke-miterlimit="10"
     id="polyline62" />
  <polyline
     points="33.5 28.8 22.5 35.4 11.5 28.8 22.5 22.2"
     fill="none"
     stroke="#147391"
     stroke-miterlimit="10"
     id="polyline64" />
  <path
     d="M22.5,22.2V10.1l-11-6.6L.5,10.1V34.3l22,13.2,11-6.6V28.8Z"
     fill="none"
     stroke="#464646"
     stroke-linejoin="round"
     id="path66" />
  <rect
     x="26.411"
     y="9.629"
     width="17.678"
     height="4.243"
     transform="translate(2.016 28.367) rotate(-45)"
     fill="url(#linear-gradient-2)"
     id="rect68" />
  <polyline
     points="40 4 42.5 1.5 45.5 4.5 43 7"
     fill="url(#paper_gradient)"
     id="polyline70" />
  <line
     x1="43"
     y1="7"
     x2="40"
     y2="4"
     stroke="#464646"
     stroke-linejoin="round"
     fill="url(#Light_Blue_Grad)"
     id="line72" />
  <polygon
     points="25.5 21.5 27.5 16.5 30.5 19.5 25.5 21.5"
     fill="url(#paper_gradient-2)"
     id="polygon74" />
  <polygon
     points="25.885 21.115 26.654 18.808 28.192 20.346 25.885 21.115"
     fill="#6e6e6e"
     id="polygon76" />
  <polygon
     points="42.5 1.5 27.5 16.5 25.5 21.5 30.5 19.5 45.5 4.5 42.5 1.5"
     fill="none"
     stroke="#464646"
     stroke-linejoin="round"
     id="polygon78" />
  <path
     d="M47.5,8.5v22h-22Zm-12,18h8v-8Z"
     stroke="#464646"
     fill="url(#paper_gradient-3)"
     id="path80" />
  <line
     x1="47"
     y1="12.5"
     x2="46"
     y2="12.5"
     fill="none"
     stroke="#6e6e6e"
     id="line82" />
  <line
     x1="47"
     y1="14.5"
     x2="45"
     y2="14.5"
     fill="none"
     stroke="#6e6e6e"
     id="line84" />
  <line
     x1="47"
     y1="16.5"
     x2="46"
     y2="16.5"
     fill="none"
     stroke="#6e6e6e"
     id="line86" />
  <line
     x1="47"
     y1="18.5"
     x2="45"
     y2="18.5"
     fill="none"
     stroke="#6e6e6e"
     id="line88" />
  <line
     x1="47"
     y1="20.5"
     x2="46"
     y2="20.5"
     fill="none"
     stroke="#6e6e6e"
     id="line90" />
  <line
     x1="47"
     y1="22.5"
     x2="45"
     y2="22.5"
     fill="none"
     stroke="#6e6e6e"
     id="line92" />
  <line
     x1="47"
     y1="24.5"
     x2="46"
     y2="24.5"
     fill="none"
     stroke="#6e6e6e"
     id="line94" />
  <line
     x1="47"
     y1="26.5"
     x2="45"
     y2="26.5"
     fill="none"
     stroke="#6e6e6e"
     id="line96" />
  <line
     x1="47"
     y1="28.5"
     x2="46"
     y2="28.5"
     fill="none"
     stroke="#6e6e6e"
     id="line98" />
  <rect
     x="20.500002"
     y="31.476191"
     width="27"
     height="16"
     fill="#41aac8"
     stroke="#464646"
     stroke-miterlimit="10"
     id="rect26" />
  <path
     d="m 30.718986,40.334637 a 1.923,1.923 0 0 1 -0.725,1.592 3.171,3.171 0 0 1 -2.025,0.578 4.188,4.188 0 0 1 -1.031,-0.14 2.748,2.748 0 0 1 -0.806,-0.311 v -1.4 a 2.8,2.8 0 0 0 0.892,0.537 2.912,2.912 0 0 0 1.085,0.22 1.481,1.481 0 0 0 0.915,-0.244 0.839,0.839 0 0 0 0.32,-0.712 1.042,1.042 0 0 0 -0.317,-0.735 5.015,5.015 0 0 0 -1.2,-0.806 4.073,4.073 0 0 1 -1.294,-0.98 1.917,1.917 0 0 1 -0.428,-1.242 1.979,1.979 0 0 1 0.323,-1.109 2.134,2.134 0 0 1 0.923,-0.768 3.238,3.238 0 0 1 1.365,-0.277 5.041,5.041 0 0 1 0.983,0.1 3.024,3.024 0 0 1 0.687,0.2 v 1.343 a 2.28,2.28 0 0 0 -0.754,-0.4 2.87,2.87 0 0 0 -0.906,-0.148 1.442,1.442 0 0 0 -0.916,0.268 0.85,0.85 0 0 0 -0.34,0.7 1.1,1.1 0 0 0 0.112,0.515 1.327,1.327 0 0 0 0.355,0.408 6.084,6.084 0 0 0 0.875,0.527 4.755,4.755 0 0 1 1.464,1.062 1.861,1.861 0 0 1 0.443,1.222 z"
     fill="#ffffff"
     id="path72" />
  <path
     d="m 41.019415,42.370636 h -1.512 l -1.45,-5.366 a 4.217,4.217 0 0 1 -0.123,-0.817 h -0.022 a 4.177,4.177 0 0 1 -0.056,0.454 c -0.031,0.178 -0.055,0.3 -0.073,0.363 l -1.436001,5.366 h -1.531 l -2.17,-7.7 h 1.4 l 1.434,5.581 a 4.457,4.457 0 0 1 0.107,0.832 h 0.032 a 5.546,5.546 0 0 1 0.145,-0.843 l 1.553001,-5.57 h 1.364 l 1.472,5.635 a 4.353,4.353 0 0 1 0.123,0.768 h 0.022 a 5.4,5.4 0 0 1 0.107,-0.8 l 1.386,-5.6 h 1.342 z"
     fill="#ffffff"
     id="path76" />
</svg>
