<?xml version="1.0" encoding="UTF-8" standalone="no"?>
<svg
   xmlns:dc="http://purl.org/dc/elements/1.1/"
   xmlns:cc="http://creativecommons.org/ns#"
   xmlns:rdf="http://www.w3.org/1999/02/22-rdf-syntax-ns#"
   xmlns:svg="http://www.w3.org/2000/svg"
   xmlns="http://www.w3.org/2000/svg"
   xmlns:xlink="http://www.w3.org/1999/xlink"
   xmlns:sodipodi="http://sodipodi.sourceforge.net/DTD/sodipodi-0.dtd"
   xmlns:inkscape="http://www.inkscape.org/namespaces/inkscape"
   version="1.1"
   id="Layer_1"
   x="0px"
   y="0px"
   viewBox="0 0 48 48"
   enable-background="new 0 0 48 48"
   xml:space="preserve"
   sodipodi:docname="typeAN4_EngItem48.svg"
   inkscape:version="1.0.1 (3bc2e813f5, 2020-09-07)"><metadata
   id="metadata1271"><rdf:RDF><cc:Work
       rdf:about=""><dc:format>image/svg+xml</dc:format><dc:type
         rdf:resource="http://purl.org/dc/dcmitype/StillImage" /></cc:Work></rdf:RDF></metadata><defs
   id="defs1269"><linearGradient
     id="Dark_Blue_Grad-2"
     x1="27.731001"
     y1="27.698"
     x2="43.266998"
     y2="43.234001"
     xlink:href="#Dark_Blue_Grad"
     gradientTransform="translate(-3.069929,1.0228096)" /><linearGradient
     id="Dark_Blue_Grad"
     data-name="Dark Blue Grad"
     x1="2.039"
     y1="25.414"
     x2="23.219"
     y2="31.174999"
     gradientTransform="rotate(29.786,14.498606,29.500135)"
     gradientUnits="userSpaceOnUse"><stop
       offset="0"
       stop-color="#73b4c8"
       id="stop822" /><stop
       offset="0.175"
       stop-color="#6aaec3"
       id="stop824" /><stop
       offset="0.457"
       stop-color="#529eb5"
       id="stop826" /><stop
       offset="0.809"
       stop-color="#2c839f"
       id="stop828" /><stop
       offset="1"
       stop-color="#147391"
       id="stop830" /></linearGradient><linearGradient
     id="paper_gradient-3"
     x1="33.380001"
     y1="33.381001"
     x2="37.620998"
     y2="37.622002"
     xlink:href="#paper_gradient"
     gradientTransform="translate(-2.6904762,0.78471625)" /><linearGradient
     id="paper_gradient"
     data-name="paper gradient"
     x1="28.379999"
     y1="10.38"
     x2="32.619999"
     y2="14.62"
     gradientUnits="userSpaceOnUse"><stop
       offset="0"
       stop-color="#fff"
       id="stop835" /><stop
       offset="0.221"
       stop-color="#f8f8f8"
       id="stop837" /><stop
       offset="0.541"
       stop-color="#e5e5e5"
       id="stop839" /><stop
       offset="0.92"
       stop-color="#c6c6c6"
       id="stop841" /><stop
       offset="1"
       stop-color="#bebebe"
       id="stop843" /></linearGradient></defs><sodipodi:namedview
   pagecolor="#ffffff"
   bordercolor="#666666"
   borderopacity="1"
   objecttolerance="10"
   gridtolerance="10"
   guidetolerance="10"
   inkscape:pageopacity="0"
   inkscape:pageshadow="2"
   inkscape:window-width="2560"
   inkscape:window-height="1377"
   id="namedview1267"
   showgrid="false"
   inkscape:zoom="21"
   inkscape:cx="24"
   inkscape:cy="24"
   inkscape:window-x="-8"
   inkscape:window-y="-8"
   inkscape:window-maximized="1"
   inkscape:current-layer="Layer_1" />
<polygon
   fill="#888888"
   points="28.5,32.4 28.5,43.9 38.5,38.1 38.5,26.6 "
   id="polygon1207" />
<polygon
   fill="#888888"
   points="18.5,15.1 18.5,26.6 28.5,20.8 28.5,9.3 "
   id="polygon1209" />
<linearGradient
   id="SVGID_1_"
   gradientUnits="userSpaceOnUse"
   x1="23.4998"
   y1="21.5768"
   x2="33.5002"
   y2="31.5771">
	<stop
   offset="0"
   style="stop-color:#F2F2F2"
   id="stop1211" />
	<stop
   offset="0.5"
   style="stop-color:#CCCCCC"
   id="stop1213" />
	<stop
   offset="0.6296"
   style="stop-color:#C7C7C7"
   id="stop1215" />
	<stop
   offset="0.7792"
   style="stop-color:#B9B9B9"
   id="stop1217" />
	<stop
   offset="0.9383"
   style="stop-color:#A2A2A2"
   id="stop1219" />
	<stop
   offset="0.99"
   style="stop-color:#999999"
   id="stop1221" />
</linearGradient>
<polygon
   fill="url(#SVGID_1_)"
   points="38.5,26.6 28.5,32.4 18.5,26.6 28.5,20.8 "
   id="polygon1224" />
<linearGradient
   id="SVGID_2_"
   gradientUnits="userSpaceOnUse"
   x1="3.7992"
   y1="13.9834"
   x2="31.0927"
   y2="41.2769">
	<stop
   offset="0"
   style="stop-color:#F2F2F2"
   id="stop1226" />
	<stop
   offset="0.5"
   style="stop-color:#CCCCCC"
   id="stop1228" />
	<stop
   offset="0.6296"
   style="stop-color:#C7C7C7"
   id="stop1230" />
	<stop
   offset="0.7792"
   style="stop-color:#B9B9B9"
   id="stop1232" />
	<stop
   offset="0.9383"
   style="stop-color:#A2A2A2"
   id="stop1234" />
	<stop
   offset="0.99"
   style="stop-color:#999999"
   id="stop1236" />
</linearGradient>
<polygon
   fill="url(#SVGID_2_)"
   points="18.5,26.6 18.5,26.6 18.5,26.6 18.5,15.1 8.5,9.3 8.5,32.3 28.5,43.9 28.5,32.4 "
   id="polygon1239" />
	<line
   fill="none"
   stroke="#6E6E6E"
   stroke-linejoin="round"
   stroke-miterlimit="10"
   x1="18.5"
   y1="26.6"
   x2="8.5"
   y2="20.8"
   id="line1241" />
	<line
   fill="none"
   stroke="#6E6E6E"
   stroke-linejoin="round"
   stroke-miterlimit="10"
   x1="28.5"
   y1="32.4"
   x2="28.5"
   y2="43.9"
   id="line1243" />
<line
   fill="none"
   stroke="#6E6E6E"
   stroke-linejoin="round"
   stroke-miterlimit="10"
   x1="18.5"
   y1="38.1"
   x2="18.5"
   y2="15.1"
   id="line1245" />
<linearGradient
   id="SVGID_3_"
   gradientUnits="userSpaceOnUse"
   x1="13.4998"
   y1="4.2828"
   x2="23.5002"
   y2="14.2831">
	<stop
   offset="0"
   style="stop-color:#FFFFFF"
   id="stop1247" />
	<stop
   offset="0.2214"
   style="stop-color:#F8F8F8"
   id="stop1249" />
	<stop
   offset="0.5415"
   style="stop-color:#E5E5E5"
   id="stop1251" />
	<stop
   offset="0.92"
   style="stop-color:#C6C6C6"
   id="stop1253" />
	<stop
   offset="1"
   style="stop-color:#BEBEBE"
   id="stop1255" />
</linearGradient>
<polygon
   fill="url(#SVGID_3_)"
   points="8.5,9.3 18.5,3.5 28.5,9.3 18.5,15.1 "
   id="polygon1258" />
<polyline
   fill="none"
   stroke="#6E6E6E"
   stroke-linejoin="round"
   stroke-miterlimit="10"
   points="28.5,9.3 18.5,15.1 8.5,9.3 "
   id="polyline1260" />
<polyline
   fill="none"
   stroke="#6E6E6E"
   stroke-linejoin="round"
   stroke-miterlimit="10"
   points="38.5,26.6 28.5,32.4 18.5,26.6   28.5,20.8 "
   id="polyline1262" />
<path
   fill="none"
   stroke="#464646"
   stroke-linejoin="round"
   stroke-miterlimit="10"
   d="M38.5,26.6l-10-5.8l0-11.5l-10-5.8l-10,5.8  v23l20,11.6l10-5.8L38.5,26.6z"
   id="path1264" />
<path
   d="m 39.755071,39.16481 3.675,-1.3 v -2.75 l -3.675,-1.3 a 0.436,0.436 0 0 1 -0.257,-0.6 l 1.671,-3.515 -1.939,-1.949 -3.519,1.672 a 0.439,0.439 0 0 1 -0.6,-0.242 l -1.3,-3.657 h -2.754 l -1.3,3.657 a 0.446,0.446 0 0 1 -0.6,0.239 l -3.527,-1.671 -1.942,1.942 1.67,3.516 a 0.441,0.441 0 0 1 -0.256,0.6 l -3.675,1.3 v 2.746 l 3.675,1.3 a 0.437,0.437 0 0 1 0.257,0.6 l -1.671,3.517 1.942,1.959 3.515,-1.668 a 0.442,0.442 0 0 1 0.6,0.269 l 1.3,3.694 h 2.746 l 1.3,-3.694 a 0.43,0.43 0 0 1 0.6,-0.276 l 3.539,1.669 1.942,-1.942 -1.67,-3.516 a 0.44,0.44 0 0 1 0.253,-0.6 z"
   stroke="#464646"
   stroke-linecap="round"
   stroke-linejoin="round"
   fill="url(#Dark_Blue_Grad-2)"
   id="path850"
   style="fill:url(#Dark_Blue_Grad-2)" /><circle
   cx="32.809525"
   cy="36.285713"
   r="3"
   stroke="#464646"
   stroke-linecap="round"
   stroke-miterlimit="10"
   fill="url(#paper_gradient-3)"
   id="circle858"
   style="fill:url(#paper_gradient-3)" /></svg>
