<?xml version="1.0" encoding="UTF-8" standalone="no"?>
<svg
   xmlns:dc="http://purl.org/dc/elements/1.1/"
   xmlns:cc="http://creativecommons.org/ns#"
   xmlns:rdf="http://www.w3.org/1999/02/22-rdf-syntax-ns#"
   xmlns:svg="http://www.w3.org/2000/svg"
   xmlns="http://www.w3.org/2000/svg"
   xmlns:xlink="http://www.w3.org/1999/xlink"
   xmlns:sodipodi="http://sodipodi.sourceforge.net/DTD/sodipodi-0.dtd"
   xmlns:inkscape="http://www.inkscape.org/namespaces/inkscape"
   id="Layer_1"
   data-name="Layer 1"
   viewBox="0 0 48 48"
   version="1.1"
   sodipodi:docname="typeSP5DocDeliv48.svg"
   inkscape:version="1.0.1 (3bc2e813f5, 2020-09-07)">
  <metadata
     id="metadata100">
    <rdf:RDF>
      <cc:Work
         rdf:about="">
        <dc:format>image/svg+xml</dc:format>
        <dc:type
           rdf:resource="http://purl.org/dc/dcmitype/StillImage" />
      </cc:Work>
    </rdf:RDF>
  </metadata>
  <defs
     id="defs98">
    <linearGradient
       id="SVGID_1_"
       gradientUnits="userSpaceOnUse"
       x1="22.500099"
       y1="9.4996996"
       x2="36.500099"
       y2="23.499701">
      <stop
         offset="0"
         style="stop-color:#EBEBEB"
         id="stop2-0" />
      <stop
         offset="0.2214"
         style="stop-color:#E8E8E8"
         id="stop4-1" />
      <stop
         offset="0.5419"
         style="stop-color:#E1E1E1"
         id="stop6-9" />
      <stop
         offset="0.9212"
         style="stop-color:#D5D5D5"
         id="stop8-5" />
      <stop
         offset="1"
         style="stop-color:#D2D2D2"
         id="stop10-0" />
    </linearGradient>
    <linearGradient
       id="SVGID_2_"
       gradientUnits="userSpaceOnUse"
       x1="13.0001"
       y1="18.999701"
       x2="32.000099"
       y2="37.999699">
      <stop
         offset="0"
         style="stop-color:#E1E1E1"
         id="stop15-4" />
      <stop
         offset="0.1588"
         style="stop-color:#DCDCDC"
         id="stop17-9" />
      <stop
         offset="0.7059"
         style="stop-color:#CECECE"
         id="stop19-5" />
      <stop
         offset="1"
         style="stop-color:#C8C8C8"
         id="stop21-8" />
    </linearGradient>
    <linearGradient
       id="SVGID_3_"
       gradientUnits="userSpaceOnUse"
       x1="12.8922"
       y1="25.716"
       x2="34.173801"
       y2="46.997601"
       gradientTransform="matrix(0.50604223,0,0,0.54417677,11.331592,17.208818)">
      <stop
         offset="0"
         style="stop-color:#FFFFFF"
         id="stop34" />
      <stop
         offset="0.2284"
         style="stop-color:#FAFAFA"
         id="stop36" />
      <stop
         offset="0.4881"
         style="stop-color:#EDEDED"
         id="stop38" />
      <stop
         offset="0.7621"
         style="stop-color:#D6D6D6"
         id="stop40" />
      <stop
         offset="1"
         style="stop-color:#BCBCBC"
         id="stop42-6" />
    </linearGradient>
  </defs>
  <sodipodi:namedview
     pagecolor="#ffffff"
     bordercolor="#666666"
     borderopacity="1"
     objecttolerance="10"
     gridtolerance="10"
     guidetolerance="10"
     inkscape:pageopacity="0"
     inkscape:pageshadow="2"
     inkscape:window-width="2560"
     inkscape:window-height="1377"
     id="namedview96"
     showgrid="false"
     inkscape:zoom="21"
     inkscape:cx="24"
     inkscape:cy="24"
     inkscape:window-x="-8"
     inkscape:window-y="-8"
     inkscape:window-maximized="1"
     inkscape:current-layer="Layer_1" />
  <linearGradient
     id="Dark_Blue_Grad"
     data-name="Dark Blue Grad"
     x1="6.494"
     y1="4.506"
     x2="45.494"
     y2="43.506"
     gradientUnits="userSpaceOnUse">
    <stop
       offset="0"
       stop-color="#c8c8c8"
       id="stop2" />
    <stop
       offset="0.175"
       stop-color="#c3c3c3"
       id="stop4" />
    <stop
       offset="0.457"
       stop-color="#b5b5b5"
       id="stop6" />
    <stop
       offset="0.809"
       stop-color="#9f9f9f"
       id="stop8" />
    <stop
       offset="1"
       stop-color="#919191"
       id="stop10" />
  </linearGradient>
  <linearGradient
     id="front_-45"
     data-name="front -45"
     x1="-4.25"
     y1="11.25"
     x2="21.25"
     y2="36.75"
     gradientUnits="userSpaceOnUse">
    <stop
       offset="0"
       stop-color="#f2f2f2"
       id="stop13" />
    <stop
       offset="0.5"
       stop-color="#cccccc"
       id="stop15" />
    <stop
       offset="0.63"
       stop-color="#c7c7c7"
       id="stop17" />
    <stop
       offset="0.779"
       stop-color="#b9b9b9"
       id="stop19" />
    <stop
       offset="0.938"
       stop-color="#a2a2a2"
       id="stop21" />
    <stop
       offset="0.99"
       stop-color="#999999"
       id="stop23" />
  </linearGradient>
  <linearGradient
     id="linear-gradient"
     x1="23.604"
     y1="28.725"
     x2="26.604"
     y2="31.725"
     gradientTransform="translate(26.872 -9.373) rotate(45)"
     gradientUnits="userSpaceOnUse">
    <stop
       offset="0"
       stop-color="#b1b1b1"
       id="stop26" />
    <stop
       offset="1"
       stop-color="#7d7d7d"
       id="stop28" />
  </linearGradient>
  <linearGradient
     id="paper_gradient"
     data-name="paper gradient"
     x1="31.104"
     y1="21.225"
     x2="34.104"
     y2="24.225"
     gradientTransform="translate(-1.854 -0.475)"
     gradientUnits="userSpaceOnUse">
    <stop
       offset="0"
       stop-color="#ffffff"
       id="stop31" />
    <stop
       offset="0.221"
       stop-color="#f8f8f8"
       id="stop33" />
    <stop
       offset="0.541"
       stop-color="#e5e5e5"
       id="stop35" />
    <stop
       offset="0.92"
       stop-color="#c6c6c6"
       id="stop37" />
    <stop
       offset="1"
       stop-color="#bebebe"
       id="stop39" />
  </linearGradient>
  <linearGradient
     id="Light_Blue_Grad"
     data-name="Light Blue Grad"
     x1="29.854"
     y1="22.475"
     x2="32.854"
     y2="25.475"
     gradientTransform="translate(-1.854 -0.475)"
     gradientUnits="userSpaceOnUse">
    <stop
       offset="0"
       stop-color="#e1e1e1"
       id="stop42" />
    <stop
       offset="1"
       stop-color="#c8c8c8"
       id="stop44" />
  </linearGradient>
  <linearGradient
     id="paper_gradient-2"
     x1="15.354"
     y1="37.475"
     x2="20.354"
     y2="37.475"
     xlink:href="#paper_gradient" />
  <linearGradient
     id="paper_gradient-3"
     x1="27.5"
     y1="33.5"
     x2="38.5"
     y2="44.5"
     gradientTransform="matrix(1, 0, 0, 1, 0, 0)"
     xlink:href="#paper_gradient" />
  <polygon
     points="41.5 47.5 10.5 47.5 10.5 0.5 41.474 0.5 41.5 47.5"
     fill="url(#Dark_Blue_Grad)"
     id="polygon49" />
  <rect
     x="6.5"
     y="0.5"
     width="4"
     height="47"
     fill="url(#front_-45)"
     id="rect51" />
  <line
     x1="10.5"
     y1="0.5"
     x2="10.5"
     y2="47.5"
     fill="none"
     stroke="#919191"
     stroke-miterlimit="10"
     id="line53" />
  <rect
     x="15.5"
     y="8.5"
     width="20"
     height="9"
     rx="1"
     ry="1"
     fill="#ffffff"
     stroke="#919191"
     id="rect55" />
  <line
     x1="29"
     y1="14.5"
     x2="17"
     y2="14.5"
     fill="none"
     stroke="#919191"
     id="line57" />
  <line
     x1="32"
     y1="11.5"
     x2="17"
     y2="11.5"
     fill="none"
     stroke="#919191"
     id="line59" />
  <polygon
     points="41.5 47.5 6.5 47.5 6.5 0.5 41.474 0.5 41.5 47.5"
     fill="none"
     stroke="#464646"
     stroke-miterlimit="10"
     id="polygon61" />
  <polygon
     fill="url(#SVGID_1_)"
     points="15.5,16.5 29.5,24.5 43.5,16.5 29.5,8.5 "
     id="polygon13"
     style="fill:url(#SVGID_1_)"
     transform="matrix(0.50604222,0,0,0.54417677,11.331593,17.208817)" />
  <polygon
     fill="url(#SVGID_2_)"
     points="29.5,40.5 29.5,24.5 15.5,16.5 15.5,32.5 "
     id="polygon24"
     style="fill:url(#SVGID_2_)"
     transform="matrix(0.50604222,0,0,0.54417677,11.331593,17.208817)" />
  <polygon
     fill="#afafaf"
     points="43.5,32.5 43.5,16.5 29.5,24.5 29.5,40.5 "
     id="polygon26"
     transform="matrix(0.50604222,0,0,0.54417677,11.331593,17.208817)" />
  <polyline
     fill="none"
     stroke="#919191"
     points="15.5,16.5 29.5,24.5 43.5,16.5 "
     id="polyline28"
     transform="matrix(0.50604222,0,0,0.54417677,11.331593,17.208817)" />
  <line
     fill="#afafaf"
     stroke="#919191"
     stroke-linejoin="round"
     stroke-miterlimit="10"
     x1="26.259838"
     y1="30.541147"
     x2="26.259838"
     y2="39.247978"
     id="line30"
     style="stroke-width:0.524763" />
  <path
     fill="none"
     stroke="#464646"
     stroke-linejoin="round"
     stroke-miterlimit="10"
     d="m 26.259839,21.83432 -7.084591,4.353414 v 8.706829 l 7.084591,4.353413 7.084591,-4.353413 v -8.706829 z"
     id="path32"
     style="stroke-width:0.524763" />
  <path
     fill="url(#SVGID_3_)"
     stroke="#464646"
     stroke-linecap="round"
     stroke-linejoin="round"
     d="m 28.624068,37.440221 1.551019,-0.756949 c 0.09159,-0.04462 0.179645,-0.09687 0.263649,-0.155636 l 2.262009,-1.593893 c 1.441713,-0.873404 2.314131,1.309833 1.035868,2.324723 -0.929599,0.74661 -1.796956,1.402887 -2.487198,1.742998 -3.783171,1.865982 -3.755339,1.878499 -5.891344,1.878499 -1.464486,0 -3.632877,-0.247057 -6.408518,-1.565598 -0.868368,-0.412485 -2.536285,0.254132 -4.560453,0.804294 -0.635589,0.173048 -1.285347,-0.228554 -1.460943,-0.903333 -0.0587,-0.225834 -0.18167,-0.807014 -0.296035,-1.363162 -0.151307,-0.733552 0.19685,-1.538389 0.86938,-1.742999 0.771715,-0.234541 1.922454,-0.429356 3.094448,-0.904966 1.728134,-0.7009 3.059532,-1.157464 5.668685,-0.146928 0.07793,0.03047 1.778233,0.926733 2.228104,1.168892 0.117909,0.06312 0.242395,0.103937 0.372953,0.122983 l 2.884948,0.417929 c 1.475618,0.256307 0.893164,2.61749 -0.677591,2.469474 l -2.681517,-0.39344 C 24.103087,38.800659 23.82274,38.71033 23.56061,38.574829 l -2.127908,-1.097604"
     id="path45"
     style="fill:url(#SVGID_3_);stroke-width:0.524763" />
</svg>
