<?xml version="1.0" encoding="UTF-8" standalone="no"?>
<svg
   xmlns:dc="http://purl.org/dc/elements/1.1/"
   xmlns:cc="http://creativecommons.org/ns#"
   xmlns:rdf="http://www.w3.org/1999/02/22-rdf-syntax-ns#"
   xmlns:svg="http://www.w3.org/2000/svg"
   xmlns="http://www.w3.org/2000/svg"
   xmlns:xlink="http://www.w3.org/1999/xlink"
   xmlns:sodipodi="http://sodipodi.sourceforge.net/DTD/sodipodi-0.dtd"
   xmlns:inkscape="http://www.inkscape.org/namespaces/inkscape"
   id="Layer_1"
   data-name="Layer 1"
   viewBox="0 0 48 48"
   version="1.1"
   sodipodi:docname="typeSP5DocDelivRevision48.svg"
   inkscape:version="1.0.1 (3bc2e813f5, 2020-09-07)">
  <metadata
     id="metadata100">
    <rdf:RDF>
      <cc:Work
         rdf:about="">
        <dc:format>image/svg+xml</dc:format>
        <dc:type
           rdf:resource="http://purl.org/dc/dcmitype/StillImage" />
      </cc:Work>
    </rdf:RDF>
  </metadata>
  <defs
     id="defs98">
    <linearGradient
       id="SVGID_1_"
       gradientUnits="userSpaceOnUse"
       x1="22.500099"
       y1="9.4996996"
       x2="36.500099"
       y2="23.499701">
      <stop
         offset="0"
         style="stop-color:#CDE6EB"
         id="stop2-2" />
      <stop
         offset="0.2214"
         style="stop-color:#C6E2E8"
         id="stop4-8" />
      <stop
         offset="0.5419"
         style="stop-color:#B3D8E1"
         id="stop6-2" />
      <stop
         offset="0.9212"
         style="stop-color:#93C7D5"
         id="stop8-9" />
      <stop
         offset="1"
         style="stop-color:#8CC3D2"
         id="stop10-4" />
    </linearGradient>
    <linearGradient
       id="SVGID_2_"
       gradientUnits="userSpaceOnUse"
       x1="13.0001"
       y1="18.999701"
       x2="32.000099"
       y2="37.999699">
      <stop
         offset="0"
         style="stop-color:#AFD7E1"
         id="stop15-0" />
      <stop
         offset="0.1588"
         style="stop-color:#A4D0DC"
         id="stop17-3" />
      <stop
         offset="0.7059"
         style="stop-color:#80BCCE"
         id="stop19-0" />
      <stop
         offset="1"
         style="stop-color:#73B4C8"
         id="stop21-7" />
    </linearGradient>
    <linearGradient
       id="SVGID_3_"
       gradientUnits="userSpaceOnUse"
       x1="12.8922"
       y1="25.716"
       x2="34.173801"
       y2="46.997601"
       gradientTransform="matrix(0.49823352,0,0,0.55771471,10.828504,16.094932)">
      <stop
         offset="0"
         style="stop-color:#FFFFFF"
         id="stop34" />
      <stop
         offset="0.2284"
         style="stop-color:#FAFAFA"
         id="stop36" />
      <stop
         offset="0.4881"
         style="stop-color:#EDEDED"
         id="stop38" />
      <stop
         offset="0.7621"
         style="stop-color:#D7D6D6"
         id="stop40" />
      <stop
         offset="1"
         style="stop-color:#BDBCBC"
         id="stop42-2" />
    </linearGradient>
  </defs>
  <sodipodi:namedview
     pagecolor="#ffffff"
     bordercolor="#666666"
     borderopacity="1"
     objecttolerance="10"
     gridtolerance="10"
     guidetolerance="10"
     inkscape:pageopacity="0"
     inkscape:pageshadow="2"
     inkscape:window-width="2560"
     inkscape:window-height="1377"
     id="namedview96"
     showgrid="false"
     inkscape:zoom="21"
     inkscape:cx="24"
     inkscape:cy="24"
     inkscape:window-x="-8"
     inkscape:window-y="-8"
     inkscape:window-maximized="1"
     inkscape:current-layer="Layer_1"
     inkscape:document-rotation="0" />
  <linearGradient
     id="Dark_Blue_Grad"
     data-name="Dark Blue Grad"
     x1="6.494"
     y1="4.506"
     x2="45.494"
     y2="43.506"
     gradientUnits="userSpaceOnUse">
    <stop
       offset="0"
       stop-color="#73b4c8"
       id="stop2" />
    <stop
       offset="0.175"
       stop-color="#6aaec3"
       id="stop4" />
    <stop
       offset="0.457"
       stop-color="#529eb5"
       id="stop6" />
    <stop
       offset="0.809"
       stop-color="#2c839f"
       id="stop8" />
    <stop
       offset="1"
       stop-color="#147391"
       id="stop10" />
  </linearGradient>
  <linearGradient
     id="front_-45"
     data-name="front -45"
     x1="-4.25"
     y1="11.25"
     x2="21.25"
     y2="36.75"
     gradientUnits="userSpaceOnUse">
    <stop
       offset="0"
       stop-color="#f2f2f2"
       id="stop13" />
    <stop
       offset="0.5"
       stop-color="#ccc"
       id="stop15" />
    <stop
       offset="0.63"
       stop-color="#c7c7c7"
       id="stop17" />
    <stop
       offset="0.779"
       stop-color="#b9b9b9"
       id="stop19" />
    <stop
       offset="0.938"
       stop-color="#a2a2a2"
       id="stop21" />
    <stop
       offset="0.99"
       stop-color="#999"
       id="stop23" />
  </linearGradient>
  <linearGradient
     id="linear-gradient"
     x1="23.604"
     y1="28.725"
     x2="26.604"
     y2="31.725"
     gradientTransform="translate(26.872 -9.373) rotate(45)"
     gradientUnits="userSpaceOnUse">
    <stop
       offset="0"
       stop-color="#b1b1b1"
       id="stop26" />
    <stop
       offset="1"
       stop-color="#7d7d7d"
       id="stop28" />
  </linearGradient>
  <linearGradient
     id="paper_gradient"
     data-name="paper gradient"
     x1="31.104"
     y1="21.225"
     x2="34.104"
     y2="24.225"
     gradientTransform="translate(-1.854 -0.475)"
     gradientUnits="userSpaceOnUse">
    <stop
       offset="0"
       stop-color="#fff"
       id="stop31" />
    <stop
       offset="0.221"
       stop-color="#f8f8f8"
       id="stop33" />
    <stop
       offset="0.541"
       stop-color="#e5e5e5"
       id="stop35" />
    <stop
       offset="0.92"
       stop-color="#c6c6c6"
       id="stop37" />
    <stop
       offset="1"
       stop-color="#bebebe"
       id="stop39" />
  </linearGradient>
  <linearGradient
     id="Light_Blue_Grad"
     data-name="Light Blue Grad"
     x1="29.854"
     y1="22.475"
     x2="32.854"
     y2="25.475"
     gradientTransform="translate(-1.854 -0.475)"
     gradientUnits="userSpaceOnUse">
    <stop
       offset="0"
       stop-color="#afd7e1"
       id="stop42" />
    <stop
       offset="1"
       stop-color="#73b4c8"
       id="stop44" />
  </linearGradient>
  <linearGradient
     id="paper_gradient-2"
     x1="15.354"
     y1="37.475"
     x2="20.354"
     y2="37.475"
     xlink:href="#paper_gradient" />
  <linearGradient
     id="paper_gradient-3"
     x1="27.5"
     y1="33.5"
     x2="38.5"
     y2="44.5"
     gradientTransform="matrix(1, 0, 0, 1, 0, 0)"
     xlink:href="#paper_gradient" />
  <polygon
     points="41.5 47.5 10.5 47.5 10.5 0.5 41.474 0.5 41.5 47.5"
     fill="url(#Dark_Blue_Grad)"
     id="polygon49" />
  <rect
     x="6.5"
     y="0.5"
     width="4"
     height="47"
     fill="url(#front_-45)"
     id="rect51" />
  <line
     x1="10.5"
     y1="0.5"
     x2="10.5"
     y2="47.5"
     fill="none"
     stroke="#147391"
     stroke-miterlimit="10"
     id="line53" />
  <rect
     x="15.5"
     y="8.5"
     width="20"
     height="9"
     rx="1"
     ry="1"
     fill="#fff"
     stroke="#147391"
     id="rect55" />
  <line
     x1="29"
     y1="14.5"
     x2="17"
     y2="14.5"
     fill="none"
     stroke="#147391"
     id="line57" />
  <line
     x1="32"
     y1="11.5"
     x2="17"
     y2="11.5"
     fill="none"
     stroke="#147391"
     id="line59" />
  <polygon
     points="41.5 47.5 6.5 47.5 6.5 0.5 41.474 0.5 41.5 47.5"
     fill="none"
     stroke="#464646"
     stroke-miterlimit="10"
     id="polygon61" />
  <polygon
     fill="url(#SVGID_1_)"
     points="43.5,16.5 29.5,8.5 15.5,16.5 29.5,24.5 "
     id="polygon13"
     style="fill:url(#SVGID_1_)"
     transform="matrix(0.49823352,0,0,0.55771471,10.828504,16.094932)" />
  <polygon
     fill="url(#SVGID_2_)"
     points="15.5,16.5 15.5,32.5 29.5,40.5 29.5,24.5 "
     id="polygon24"
     style="fill:url(#SVGID_2_)"
     transform="matrix(0.49823352,0,0,0.55771471,10.828504,16.094932)" />
  <polygon
     fill="#3c91af"
     points="29.5,24.5 29.5,40.5 43.5,32.5 43.5,16.5 "
     id="polygon26"
     transform="matrix(0.49823352,0,0,0.55771471,10.828504,16.094932)" />
  <polyline
     fill="none"
     stroke="#147391"
     points="15.5,16.5 29.5,24.5 43.5,16.5 "
     id="polyline28"
     transform="matrix(0.49823352,0,0,0.55771471,10.828504,16.094932)" />
  <line
     fill="#3c91af"
     stroke="#147391"
     stroke-linejoin="round"
     stroke-miterlimit="10"
     x1="25.526394"
     y1="29.758944"
     x2="25.526394"
     y2="38.682377"
     id="line30"
     style="stroke-width:0.527135" />
  <path
     fill="none"
     stroke="#464646"
     stroke-linejoin="round"
     stroke-miterlimit="10"
     d="m 25.526393,20.835508 -6.975269,4.461718 v 8.923435 l 6.975269,4.461717 6.97527,-4.461717 v -8.923435 z"
     id="path32"
     style="stroke-width:0.527135" />
  <path
     fill="url(#SVGID_3_)"
     stroke="#464646"
     stroke-linecap="round"
     stroke-linejoin="round"
     d="m 27.854141,36.82965 1.527085,-0.77578 c 0.09018,-0.04573 0.176873,-0.09927 0.25958,-0.159507 l 2.227104,-1.633546 c 1.419467,-0.895133 2.278422,1.342419 1.019884,2.382556 -0.915255,0.765185 -1.769228,1.43779 -2.448818,1.786361 -3.724794,1.912404 -3.697391,1.925231 -5.800435,1.925231 -1.441888,0 -3.576819,-0.253203 -6.309629,-1.604545 -0.854969,-0.422747 -2.497147,0.260453 -4.490081,0.824302 -0.625781,0.177353 -1.265513,-0.23424 -1.4384,-0.925806 -0.05779,-0.231452 -0.178866,-0.827091 -0.291467,-1.397076 -0.148972,-0.751799 0.193813,-1.576659 0.855965,-1.786359 0.759807,-0.240376 1.89279,-0.440038 3.046698,-0.92748 1.701468,-0.718337 3.01232,-1.18626 5.581213,-0.150583 0.07673,0.03123 1.750793,0.949788 2.193722,1.197971 0.116088,0.0647 0.238653,0.106524 0.367198,0.126044 l 2.840429,0.428324 c 1.452849,0.262684 0.879382,2.682608 -0.667134,2.530909 l -2.64014,-0.403227 c -0.283993,-0.04351 -0.560014,-0.136082 -0.818099,-0.274953 l -2.095072,-1.124911"
     id="path45"
     style="fill:url(#SVGID_3_);stroke-width:0.527135" />
</svg>
